<svg width="0" height="0" class="hidden">
    <symbol id="envelope" xmlns="http://www.w3.org/2000/svg" xml:space="preserve" viewBox="-0.5 0.5 42 42">
    <path d="M40.5,31.5v-18c0,0-18.2,12.7-19.97,13.359C18.79,26.23,0.5,13.5,0.5,13.5v18c0,2.5,0.53,3,3,3h34
        C40.029,34.5,40.5,34.061,40.5,31.5z M40.471,9.971c0-1.821-0.531-2.471-2.971-2.471h-34c-2.51,0-3,0.78-3,2.6l0.03,0.28
        c0,0,18.069,12.44,20,13.12C22.57,22.71,40.5,10.1,40.5,10.1L40.471,9.971z"></path>
  </symbol>

    <symbol id="pencil" xmlns="http://www.w3.org/2000/svg" xml:space="preserve" viewBox="0 0 485.219 485.22">
      <path d="M467.476,146.438l-21.445,21.455L317.35,39.23l21.445-21.457c23.689-23.692,62.104-23.692,85.795,0l42.886,42.897
		C491.133,84.349,491.133,122.748,467.476,146.438z M167.233,403.748c-5.922,5.922-5.922,15.513,0,21.436
		c5.925,5.955,15.521,5.955,21.443,0L424.59,189.335l-21.469-21.457L167.233,403.748z M60,296.54c-5.925,5.927-5.925,15.514,0,21.44
		c5.922,5.923,15.518,5.923,21.443,0L317.35,82.113L295.914,60.67L60,296.54z M338.767,103.54L102.881,339.421
		c-11.845,11.822-11.815,31.041,0,42.886c11.85,11.846,31.038,11.901,42.914-0.032l235.886-235.837L338.767,103.54z
		 M145.734,446.572c-7.253-7.262-10.749-16.465-12.05-25.948c-3.083,0.476-6.188,0.919-9.36,0.919
		c-16.202,0-31.419-6.333-42.881-17.795c-11.462-11.491-17.77-26.687-17.77-42.887c0-2.954,0.443-5.833,0.859-8.703
		c-9.803-1.335-18.864-5.629-25.972-12.737c-0.682-0.677-0.917-1.596-1.538-2.338L0,485.216l147.748-36.986
		C147.097,447.637,146.36,447.193,145.734,446.572z"></path>
  </symbol>

    <symbol id="plus" xmlns="http://www.w3.org/2000/svg" xml:space="preserve" viewBox="0 0 533.333 533.333">
      <path d="M516.667,200H333.333V16.667C333.333,7.462,325.871,0,316.667,0h-100C207.462,0,200,7.462,200,16.667V200H16.667
		C7.462,200,0,207.462,0,216.667v100c0,9.204,7.462,16.666,16.667,16.666H200v183.334c0,9.204,7.462,16.666,16.667,16.666h100
		c9.204,0,16.667-7.462,16.667-16.666V333.333h183.333c9.204,0,16.667-7.462,16.667-16.666v-100
		C533.333,207.462,525.871,200,516.667,200z"></path>
  </symbol>

    <symbol id="cross" xmlns="http://www.w3.org/2000/svg" xml:space="preserve" viewBox="0 0 212.982 212.982">
      <path d="M131.804,106.491l75.936-75.936c6.99-6.99,6.99-18.323,0-25.312
		c-6.99-6.99-18.322-6.99-25.312,0l-75.937,75.937L30.554,5.242c-6.99-6.99-18.322-6.99-25.312,0c-6.989,6.99-6.989,18.323,0,25.312
		l75.937,75.936L5.242,182.427c-6.989,6.99-6.989,18.323,0,25.312c6.99,6.99,18.322,6.99,25.312,0l75.937-75.937l75.937,75.937
		c6.989,6.99,18.322,6.99,25.312,0c6.99-6.99,6.99-18.322,0-25.312L131.804,106.491z"></path>
  </symbol>

    <symbol xmlns="http://www.w3.org/2000/svg" id="burger" viewBox="0 0 35 13">
        <rect width="35" height="4"/>
        <rect y="9" width="35" height="4"/>
    </symbol>

    <symbol xmlns="http://www.w3.org/2000/svg" viewBox="0 0 128 128" id="info-warning">
        <path d="M 64 6 C 32 6 6 32 6 64 C 6 96 32 122 64 122 C 96 122 122 96 122 64 C 122 32 96 6 64 6 z M 64 12 C 92.7 12 116 35.3 116 64 C 116 92.7 92.7 116 64 116 C 35.3 116 12 92.7 12 64 C 12 35.3 35.3 12 64 12 z M 64 38 C 62.3 38 61 39.3 61 41 L 61 46 C 61 47.7 62.3 49 64 49 C 65.7 49 67 47.7 67 46 L 67 41 C 67 39.3 65.7 38 64 38 z M 64 58 C 62.3 58 61 59.3 61 61 L 61 87 C 61 88.7 62.3 90 64 90 C 65.7 90 67 88.7 67 87 L 67 61 C 67 59.3 65.7 58 64 58 z"></path>
    </symbol>

    <symbol id="right-arrow" xmlns="http://www.w3.org/2000/svg" xml:space="preserve" viewBox="0 0 330 330">
        <path id="XMLID_222_" d="M250.606,154.389l-150-149.996c-5.857-5.858-15.355-5.858-21.213,0.001
        c-5.857,5.858-5.857,15.355,0.001,21.213l139.393,139.39L79.393,304.394c-5.857,5.858-5.857,15.355,0.001,21.213
        C82.322,328.536,86.161,330,90,330s7.678-1.464,10.607-4.394l149.999-150.004c2.814-2.813,4.394-6.628,4.394-10.606
        C255,161.018,253.42,157.202,250.606,154.389z"></path>
  </symbol>
</svg>
